<svg width="13" height="13" viewBox="0 0 13 13" fill="none" xmlns="http://www.w3.org/2000/svg">
<path fill-rule="evenodd" clip-rule="evenodd" d="M6.90914 0.556305C7.32336 0.556305 7.65914 0.892095 7.65914 1.3063V5.88964H6.15914V1.3063C6.15914 0.892095 6.49493 0.556305 6.90914 0.556305ZM6.15914 7.38964V5.88964H1.57581C1.1616 5.88964 0.825806 6.22543 0.825806 6.63964C0.825806 7.05385 1.1616 7.38964 1.57581 7.38964H6.15914ZM7.65914 7.38964V5.88964H12.2425C12.6567 5.88964 12.9925 6.22543 12.9925 6.63964C12.9925 7.05385 12.6567 7.38964 12.2425 7.38964H7.65914ZM7.65914 7.38964V11.973C7.65914 12.3872 7.32336 12.723 6.90914 12.723C6.49493 12.723 6.15914 12.3872 6.15914 11.973V7.38964H7.65914Z" fill="white"/>
</svg>
