<svg width="21" height="20" viewBox="0 0 21 20" fill="none" xmlns="http://www.w3.org/2000/svg">
<path d="M19.4658 5H0.71582C0.37082 5 0.0908203 5.28 0.0908203 5.625V19.375C0.0908203 19.72 0.37082 20 0.71582 20H19.4658C19.8108 20 20.0908 19.72 20.0908 19.375V5.625C20.0908 5.28 19.8108 5 19.4658 5ZM13.2158 11.1725C12.8708 11.1725 12.5908 10.8925 12.5908 10.5475C12.5908 9.7125 11.9071 9.235 11.3408 8.98375V15.625C11.3408 16.6763 10.2433 17.5 8.84082 17.5C7.43832 17.5 6.34082 16.6763 6.34082 15.625C6.34082 14.5737 7.43832 13.75 8.84082 13.75C9.30207 13.75 9.72332 13.8462 10.0908 14.0025V8.125C10.0908 7.93875 10.1733 7.7625 10.3171 7.64375C10.4608 7.525 10.6496 7.4775 10.8321 7.51125C11.8733 7.70625 13.8408 8.5925 13.8408 10.5475C13.8408 10.8925 13.5608 11.1725 13.2158 11.1725ZM17.5908 3.125C17.5908 2.78 17.3108 2.5 16.9658 2.5H3.21582C2.87082 2.5 2.59082 2.78 2.59082 3.125V3.75H17.5908V3.125ZM15.0908 0.625C15.0908 0.28 14.8108 0 14.4658 0H5.71582C5.37082 0 5.09082 0.28 5.09082 0.625V1.25H15.0908V0.625Z" fill="#5A5A5A"/>
</svg>
