<svg width="44" height="28" viewBox="0 0 44 28" fill="none" xmlns="http://www.w3.org/2000/svg">
<path fill-rule="evenodd" clip-rule="evenodd" d="M40.8756 17.0497C39.4435 17.0497 37.742 17.4069 36.4889 18.3023C36.1309 18.5706 36.1309 18.9279 36.5792 18.9279C38.0113 18.7485 41.2352 18.3023 41.861 19.1072C42.3981 19.8233 41.2337 22.8651 40.6966 24.2956C40.5176 24.7433 40.8756 24.8323 41.2337 24.5639C43.6512 22.5064 44.277 18.3008 43.8302 17.7642C43.5609 17.318 42.3078 17.0497 40.8756 17.0497Z" fill="black"/>
<path fill-rule="evenodd" clip-rule="evenodd" d="M1.35671 18.2753C4.12615 20.0124 6.9262 21.6714 9.86549 22.924C12.7941 24.1736 15.8665 25.0674 18.9542 25.0797C22.0985 25.164 25.2918 24.7316 28.3902 24.0248C31.4993 23.3073 34.5289 22.2264 37.5049 20.9615C37.8935 20.7944 38.3449 20.9768 38.5101 21.3663C38.6631 21.7266 38.5193 22.1405 38.1888 22.3337C35.3016 24.0034 32.1787 25.2974 28.9257 26.1744C25.6636 27.0514 22.2943 27.4347 18.8838 27.3795C15.4013 27.197 12.0673 26.1345 9.08362 24.5875C6.09231 23.0329 3.37641 21.0765 0.896152 18.8886C0.737024 18.7475 0.721723 18.5053 0.860961 18.3458C0.989488 18.2032 1.20064 18.1772 1.35671 18.2753Z" fill="black"/>
<path fill-rule="evenodd" clip-rule="evenodd" d="M20.2493 13.9853H19.6311C17.8623 13.9853 16.4241 12.544 16.4241 10.7717V4.78601H17.9542V10.7717C17.9542 11.6977 18.707 12.4521 19.6311 12.4521H20.2493C21.1719 12.4521 22.5444 11.0768 22.5444 10.1522V8.61903H24.0745V10.1522C24.0745 11.943 22.0364 13.9853 20.2493 13.9853Z" fill="black"/>
<path d="M4.18462 4.78601H2.65454V13.9853H4.18462V4.78601Z" fill="black"/>
<path fill-rule="evenodd" clip-rule="evenodd" d="M3.251 8.17146C3.21887 7.42479 3.47593 6.80537 3.82019 6.24422C3.99921 5.96364 4.19659 5.69533 4.47507 5.44235C4.78415 5.18017 5.13912 5.00845 5.50328 4.89193C7.00888 4.44423 8.58028 5.35956 9.23362 6.72564C9.57483 7.41712 9.5427 8.24965 9.53811 8.75561V13.9823H8.00803V8.75561C8.01109 8.11013 8.02027 7.73756 7.84278 7.36653C7.52299 6.60299 6.57893 6.26415 5.80012 6.28715C5.1177 6.25802 4.20425 7.34506 4.01452 8.17146H3.251Z" fill="black"/>
<path fill-rule="evenodd" clip-rule="evenodd" d="M8.39358 8.17146C8.36145 7.42479 8.6185 6.80537 8.96277 6.24422C9.14179 5.96364 9.33917 5.69533 9.61765 5.44235C9.92672 5.18017 10.2817 5.00845 10.6459 4.89193C12.1515 4.44423 13.7229 5.35956 14.3762 6.72564C14.7174 7.41712 14.6853 8.24965 14.6807 8.75561V13.9823H13.1506V8.75561C13.1537 8.11013 13.1628 7.73756 12.9854 7.36653C12.6656 6.60299 11.7215 6.26415 10.9427 6.28715C10.2603 6.25802 9.34682 7.34506 9.15709 8.17146H8.39358Z" fill="black"/>
<path d="M24.0772 4.78601H22.5471V13.9853H24.0772V4.78601Z" fill="black"/>
<path d="M34.7842 4.78406H33.2542V13.9833H34.7842V4.78406Z" fill="black"/>
<path d="M34.0206 3.25184C34.8656 3.25184 35.5506 2.5654 35.5506 1.71863C35.5506 0.871866 34.8656 0.185425 34.0206 0.185425C33.1755 0.185425 32.4905 0.871866 32.4905 1.71863C32.4905 2.5654 33.1755 3.25184 34.0206 3.25184Z" fill="black"/>
<path fill-rule="evenodd" clip-rule="evenodd" d="M37.8467 8.80107V9.9663C37.8467 11.3309 38.9637 12.4501 40.3255 12.4501C40.9834 12.4501 41.6107 12.1895 42.0851 11.7295L42.437 11.3769V13.37C41.8096 13.7687 41.0905 13.9833 40.3255 13.9833C38.1221 13.9833 36.3167 12.1741 36.3167 9.9663V8.80107C36.3167 6.59325 38.1221 4.78406 40.3255 4.78406C41.0905 4.78406 41.8096 4.99871 42.437 5.39734V7.39051L42.0851 7.03787C41.6107 6.57791 40.9834 6.31727 40.3255 6.31727C38.9637 6.31727 37.8467 7.43651 37.8467 8.80107Z" fill="black"/>
<path fill-rule="evenodd" clip-rule="evenodd" d="M27.5107 6.24814C27.3577 6.35546 27.1358 6.66977 27.1358 7.08374C27.1358 7.973 27.6254 8.23365 28.9107 8.66295C30.1042 9.04625 31.726 9.5982 31.726 11.6834C31.726 12.4806 31.42 13.1399 30.8233 13.5999C30.0735 14.1825 28.9413 14.3665 27.8549 14.3665C27.0287 14.3665 26.2024 14.2592 25.6057 14.1518V12.588C27.044 12.8793 29.0943 13.0173 29.8746 12.3886C30.0276 12.2813 30.196 12.0973 30.196 11.6834C30.196 10.7941 29.7063 10.5335 28.4211 10.1042C27.2276 9.72086 25.6057 9.1689 25.6057 7.08374C25.6057 6.28647 25.9117 5.62719 26.5085 5.16723C27.8396 4.12464 30.0384 4.40216 31.394 4.91578V6.47966C29.9772 5.66092 28.291 5.61952 27.5107 6.24814Z" fill="black"/>
</svg>
