<svg width="45" height="44" viewBox="0 0 45 44" fill="none" xmlns="http://www.w3.org/2000/svg">
<rect x="0.636353" width="44" height="44" rx="22" fill="black"/>
<path fill-rule="evenodd" clip-rule="evenodd" d="M35.3629 25.8945C34.3783 25.8945 33.2086 26.1401 32.3471 26.7557C32.1009 26.9402 32.1009 27.1858 32.4091 27.1858C33.3937 27.0625 35.6102 26.7557 36.0404 27.3091C36.4096 27.8014 35.6091 29.8927 35.2399 30.8761C35.1168 31.1839 35.3629 31.245 35.6091 31.0606C37.2712 29.646 37.7014 26.7547 37.3942 26.3857C37.2091 26.079 36.3476 25.8945 35.3629 25.8945Z" fill="white"/>
<path fill-rule="evenodd" clip-rule="evenodd" d="M8.19294 26.7366C10.0969 27.9309 12.022 29.0714 14.0427 29.9326C16.0561 30.7916 18.1684 31.4062 20.2912 31.4146C22.4529 31.4726 24.6483 31.1753 26.7785 30.6894C28.916 30.1961 30.9988 29.453 33.0448 28.5833C33.312 28.4685 33.6223 28.5939 33.7359 28.8616C33.8411 29.1093 33.7422 29.3939 33.515 29.5268C31.53 30.6746 29.383 31.5643 27.1466 32.1672C24.9039 32.7702 22.5876 33.0337 20.2428 32.9957C17.8486 32.8703 15.5565 32.1398 13.5052 31.0763C11.4487 30.0074 9.58149 28.6624 7.87631 27.1582C7.76691 27.0613 7.75639 26.8947 7.85212 26.7851C7.94048 26.6871 8.08565 26.6691 8.19294 26.7366Z" fill="white"/>
<path fill-rule="evenodd" clip-rule="evenodd" d="M21.1822 23.7874H20.7572C19.5412 23.7874 18.5524 22.7965 18.5524 21.578V17.4629H19.6043V21.578C19.6043 22.2147 20.1218 22.7333 20.7572 22.7333H21.1822C21.8165 22.7333 22.7601 21.7878 22.7601 21.1522V20.0981H23.812V21.1522C23.812 22.3833 22.4108 23.7874 21.1822 23.7874Z" fill="white"/>
<path d="M10.1375 17.4629H9.08557V23.7874H10.1375V17.4629Z" fill="white"/>
<path fill-rule="evenodd" clip-rule="evenodd" d="M9.49564 19.7906C9.47355 19.2772 9.65027 18.8514 9.88696 18.4656C10.01 18.2727 10.1457 18.0882 10.3372 17.9143C10.5497 17.7341 10.7937 17.616 11.0441 17.5359C12.0792 17.2281 13.1595 17.8574 13.6087 18.7966C13.8433 19.272 13.8212 19.8443 13.818 20.1922V23.7855H12.7661V20.1922C12.7682 19.7484 12.7745 19.4923 12.6525 19.2372C12.4326 18.7122 11.7836 18.4793 11.2482 18.4951C10.779 18.4751 10.151 19.2224 10.0206 19.7906H9.49564Z" fill="white"/>
<path fill-rule="evenodd" clip-rule="evenodd" d="M13.0308 19.7906C13.0087 19.2772 13.1854 18.8514 13.4221 18.4656C13.5452 18.2727 13.6809 18.0882 13.8723 17.9143C14.0848 17.7341 14.3289 17.616 14.5792 17.5359C15.6143 17.2281 16.6947 17.8574 17.1438 18.7966C17.3784 19.272 17.3563 19.8443 17.3532 20.1922V23.7855H16.3012V20.1922C16.3034 19.7484 16.3097 19.4923 16.1876 19.2372C15.9678 18.7122 15.3187 18.4793 14.7833 18.4951C14.3142 18.4751 13.6861 19.2224 13.5557 19.7906H13.0308Z" fill="white"/>
<path d="M23.8133 17.4629H22.7614V23.7874H23.8133V17.4629Z" fill="white"/>
<path d="M31.1746 17.4619H30.1227V23.7864H31.1746V17.4619Z" fill="white"/>
<path d="M30.6492 16.4082C31.2302 16.4082 31.7012 15.9362 31.7012 15.3541C31.7012 14.7719 31.2302 14.3 30.6492 14.3C30.0683 14.3 29.5973 14.7719 29.5973 15.3541C29.5973 15.9362 30.0683 16.4082 30.6492 16.4082Z" fill="white"/>
<path fill-rule="evenodd" clip-rule="evenodd" d="M33.2801 20.2236V21.0247C33.2801 21.9628 34.048 22.7323 34.9842 22.7323C35.4365 22.7323 35.8678 22.5531 36.1939 22.2369L36.4359 21.9945V23.3648C36.0046 23.6388 35.5102 23.7864 34.9842 23.7864C33.4694 23.7864 32.2281 22.5426 32.2281 21.0247V20.2236C32.2281 18.7057 33.4694 17.4619 34.9842 17.4619C35.5102 17.4619 36.0046 17.6095 36.4359 17.8835V19.2539L36.1939 19.0114C35.8678 18.6952 35.4365 18.516 34.9842 18.516C34.048 18.516 33.2801 19.2855 33.2801 20.2236Z" fill="white"/>
<path fill-rule="evenodd" clip-rule="evenodd" d="M26.1745 18.4681C26.0693 18.5419 25.9168 18.758 25.9168 19.0426C25.9168 19.6539 26.2534 19.8331 27.137 20.1283C27.9575 20.3918 29.0726 20.7713 29.0726 22.2048C29.0726 22.7529 28.8622 23.2062 28.452 23.5224C27.9365 23.923 27.1581 24.0495 26.4112 24.0495C25.8432 24.0495 25.2751 23.9757 24.8649 23.9019V22.8267C25.8537 23.027 27.2633 23.1219 27.7998 22.6897C27.9049 22.6159 28.0207 22.4894 28.0207 22.2048C28.0207 21.5935 27.684 21.4143 26.8004 21.1191C25.9799 20.8556 24.8649 20.4761 24.8649 19.0426C24.8649 18.4945 25.0753 18.0412 25.4855 17.725C26.4007 17.0082 27.9123 17.199 28.8443 17.5521V18.6273C27.8702 18.0644 26.711 18.0359 26.1745 18.4681Z" fill="white"/>
</svg>
