<svg width="45" height="44" viewBox="0 0 45 44" fill="none" xmlns="http://www.w3.org/2000/svg">
<g clip-path="url(#clip0_31_1163)">
<path fill-rule="evenodd" clip-rule="evenodd" d="M44.5145 13.7253C44.5145 13.2012 44.5145 12.6771 44.512 12.153C44.5096 11.7118 44.5047 11.2706 44.4925 10.8294C44.4669 9.8677 44.4096 8.89873 44.239 7.94803C44.0659 6.98271 43.7819 6.08443 43.3359 5.20687C42.8971 4.34515 42.3242 3.55778 41.6405 2.87402C40.9567 2.19025 40.1681 1.6174 39.3064 1.17861C38.43 0.732521 37.5318 0.449751 36.5677 0.275457C35.617 0.10482 34.6468 0.0475346 33.6851 0.0219391C33.2439 0.00975069 32.8027 0.00487535 32.3615 0.00243767C31.8374 0 31.3133 0 30.7892 0H14.3617C13.8376 0 13.3135 0 12.7894 0.00243767C12.3482 0.00487535 11.9069 0.00975069 11.4657 0.0219391C10.5041 0.0487535 9.53386 0.10482 8.58317 0.276676C7.61785 0.449751 6.72078 0.73374 5.84444 1.17983C4.98272 1.61862 4.19414 2.19147 3.51037 2.87524C2.8266 3.559 2.25375 4.34637 1.81497 5.20809C1.36887 6.08565 1.08488 6.98393 0.91181 7.94925C0.741172 8.89995 0.683887 9.87014 0.658292 10.8306C0.646103 11.2718 0.641228 11.713 0.63879 12.1542C0.636353 12.6771 0.636353 13.2012 0.636353 13.7253V30.1516C0.636353 30.6757 0.636353 31.1998 0.63879 31.7239C0.641228 32.1651 0.646103 32.6063 0.658292 33.0475C0.683887 34.0092 0.741172 34.9782 0.91181 35.9289C1.08488 36.8942 1.36887 37.7925 1.81497 38.67C2.25375 39.5317 2.8266 40.3191 3.51037 41.0029C4.19414 41.6866 4.98272 42.2595 5.84444 42.6983C6.72078 43.1444 7.61907 43.4272 8.58317 43.6014C9.53386 43.7721 10.5041 43.8294 11.4657 43.855C11.9069 43.8671 12.3482 43.872 12.7894 43.8745C13.3135 43.8781 13.8376 43.8769 14.3617 43.8769H30.7879C31.312 43.8769 31.8361 43.8769 32.3602 43.8745C32.8014 43.872 33.2427 43.8671 33.6839 43.855C34.6456 43.8294 35.6157 43.7721 36.5664 43.6014C37.5318 43.4284 38.4288 43.1444 39.3052 42.6983C40.1669 42.2595 40.9555 41.6866 41.6392 41.0029C42.323 40.3191 42.8959 39.5317 43.3346 38.67C43.7807 37.7925 44.0647 36.8942 44.2378 35.9289C44.4084 34.9782 44.4657 34.008 44.4913 33.0475C44.5035 32.6063 44.5084 32.1651 44.5108 31.7239C44.5145 31.1998 44.5132 30.6757 44.5132 30.1516V13.7253H44.5145Z" fill="white"/>
<path fill-rule="evenodd" clip-rule="evenodd" d="M31.6549 6.70339C31.5489 6.71314 30.6067 6.88012 30.4934 6.90328L17.4518 9.53475L17.4469 9.53597C17.1069 9.60788 16.84 9.72854 16.634 9.90162C16.3853 10.11 16.2476 10.405 16.1952 10.7487C16.1842 10.8218 16.166 10.9705 16.166 11.1899C16.166 11.1899 16.166 24.5142 16.166 27.5126C16.166 27.8941 16.1355 28.2646 15.8771 28.5803C15.6187 28.896 15.2994 28.991 14.9252 29.0666C14.6412 29.1239 14.3572 29.1812 14.0732 29.2385C12.9958 29.4554 12.2949 29.6029 11.6599 29.8491C11.0529 30.0843 10.5983 30.3842 10.2363 30.7644C9.51842 31.5165 9.22711 32.5366 9.32706 33.4922C9.41238 34.3076 9.77925 35.0877 10.4094 35.6642C10.8348 36.0542 11.3662 36.3504 11.9927 36.4759C12.6423 36.6063 13.3346 36.5612 14.3462 36.3565C14.885 36.248 15.3896 36.0786 15.8698 35.7946C16.3451 35.5142 16.7522 35.1401 17.0703 34.6842C17.3897 34.2272 17.5956 33.7189 17.709 33.179C17.826 32.622 17.854 32.1186 17.854 31.5628V17.406C17.854 16.6479 18.0686 16.448 18.6804 16.2993C18.6804 16.2993 29.5207 14.1127 30.0266 14.014C30.7323 13.8787 31.065 14.0798 31.065 14.8196V24.4838C31.065 24.8665 31.0614 25.2541 30.8005 25.571C30.5421 25.8867 30.2228 25.9817 29.8486 26.0573C29.5646 26.1146 29.2806 26.1719 28.9966 26.2292C27.9192 26.4461 27.2184 26.5936 26.5833 26.8398C25.9764 27.075 25.5217 27.3749 25.1597 27.7551C24.4419 28.5072 24.125 29.5273 24.2249 30.4829C24.3102 31.2983 24.7027 32.0784 25.3328 32.6549C25.7582 33.0449 26.2896 33.3325 26.9161 33.4593C27.5657 33.5897 28.258 33.5434 29.2697 33.3398C29.8084 33.2314 30.313 33.0693 30.7932 32.7853C31.2686 32.5049 31.6756 32.1308 31.9938 31.6749C32.3131 31.2179 32.5191 30.7096 32.6324 30.1697C32.7494 29.6126 32.7543 29.1093 32.7543 28.5535V7.85641C32.7568 7.10561 32.3606 6.64245 31.6549 6.70339Z" fill="#FA4961"/>
</g>
<defs>
<clipPath id="clip0_31_1163">
<rect width="44" height="44" fill="white" transform="translate(0.636353)"/>
</clipPath>
</defs>
</svg>
