<svg width="30" height="38" viewBox="0 0 30 38" fill="none" xmlns="http://www.w3.org/2000/svg">
<path fill-rule="evenodd" clip-rule="evenodd" d="M28.1965 0.654885C28.0655 0.66683 26.9021 0.871401 26.7622 0.899772L10.658 4.12363L10.652 4.12512C10.2321 4.21322 9.90245 4.36105 9.64809 4.57308C9.34106 4.82842 9.17099 5.18978 9.10627 5.61087C9.09272 5.70046 9.07015 5.88264 9.07015 6.15141C9.07015 6.15141 9.07015 22.4753 9.07015 26.1486C9.07015 26.6159 9.03252 27.0699 8.71345 27.4566C8.39437 27.8434 8.00005 27.9598 7.53799 28.0524C7.18731 28.1226 6.83663 28.1928 6.48595 28.263C5.15548 28.5288 4.29007 28.7094 3.50593 29.0111C2.75641 29.2993 2.19502 29.6666 1.74802 30.1325C0.861534 31.0538 0.501824 32.3036 0.625239 33.4743C0.730594 34.4733 1.18362 35.4289 1.96174 36.1352C2.487 36.613 3.14321 36.9759 3.91681 37.1297C4.71901 37.2895 5.57389 37.2342 6.82309 36.9833C7.48833 36.8505 8.11142 36.6429 8.70442 36.295C9.29139 35.9515 9.79408 35.4931 10.1869 34.9347C10.5812 34.3747 10.8356 33.752 10.9756 33.0905C11.12 32.4081 11.1547 31.7914 11.1547 31.1105V13.7668C11.1547 12.838 11.4196 12.5931 12.1751 12.411C12.1751 12.411 25.5611 9.73215 26.1857 9.6112C27.0572 9.44545 27.468 9.69183 27.468 10.5982V22.4379C27.468 22.9068 27.4635 23.3816 27.1414 23.7699C26.8224 24.1566 26.428 24.2731 25.966 24.3657C25.6153 24.4358 25.2646 24.506 24.9139 24.5762C23.5835 24.842 22.7181 25.0227 21.9339 25.3243C21.1844 25.6125 20.623 25.9798 20.176 26.4457C19.2895 27.367 18.8982 28.6169 19.0216 29.7875C19.127 30.7865 19.6116 31.7422 20.3897 32.4485C20.915 32.9263 21.5712 33.2787 22.3448 33.434C23.147 33.5937 24.0019 33.537 25.2511 33.2876C25.9163 33.1547 26.5394 32.9561 27.1324 32.6082C27.7194 32.2648 28.2221 31.8064 28.6149 31.2479C29.0092 30.6879 29.2636 30.0653 29.4035 29.4038C29.548 28.7214 29.5541 28.1047 29.5541 27.4238V2.06747C29.5571 1.14765 29.0679 0.580224 28.1965 0.654885Z" fill="#FA4961"/>
</svg>
