<svg width="10" height="16" viewBox="0 0 10 16" fill="none" xmlns="http://www.w3.org/2000/svg">
<path d="M1.80687 0.970082C1.59926 0.966232 1.39558 1.02701 1.22402 1.144C1.05246 1.26099 0.921504 1.42842 0.849275 1.6231C0.777046 1.81779 0.767114 2.03011 0.820854 2.23069C0.874594 2.43127 0.989349 2.61018 1.14924 2.74268L7.26829 7.98111L1.14546 13.2195C1.0336 13.3011 0.939859 13.4049 0.870151 13.5245C0.800443 13.6441 0.756282 13.7768 0.740455 13.9144C0.724628 14.0519 0.737478 14.1912 0.778195 14.3235C0.818912 14.4558 0.886611 14.5782 0.977021 14.683C1.06743 14.7879 1.17859 14.8728 1.30347 14.9325C1.42836 14.9922 1.56427 15.0254 1.70262 15.0299C1.84097 15.0345 1.97876 15.0103 2.10729 14.9589C2.23582 14.9075 2.35231 14.83 2.44939 14.7313L9.44908 8.74835C9.55916 8.65432 9.64755 8.53755 9.70816 8.40607C9.76877 8.2746 9.80015 8.13155 9.80015 7.98677C9.80015 7.842 9.76877 7.69895 9.70816 7.56748C9.64755 7.436 9.55916 7.31923 9.44908 7.2252L2.44939 1.22331C2.27116 1.06679 2.04397 0.977251 1.80687 0.970082Z" fill="#8D8D93"/>
</svg>
