<svg width="14" height="14" viewBox="0 0 14 14" fill="none" xmlns="http://www.w3.org/2000/svg">
<path fill-rule="evenodd" clip-rule="evenodd" d="M8.41399 7.0002L13.707 1.70725C14.098 1.31625 14.098 0.68425 13.707 0.29325C13.316 -0.09775 12.684 -0.09775 12.293 0.29325L7 5.5862L1.70701 0.29325C1.31601 -0.09775 0.684006 -0.09775 0.293006 0.29325C-0.0979941 0.68425 -0.0979941 1.31625 0.293006 1.70725L5.586 7.0002L0.293006 12.2933C-0.0979941 12.6842 -0.0979941 13.3162 0.293006 13.7072C0.488006 13.9022 0.744006 14.0002 1.00001 14.0002C1.25601 14.0002 1.51201 13.9022 1.70701 13.7072L7 8.4143L12.293 13.7072C12.488 13.9022 12.744 14.0002 13 14.0002C13.256 14.0002 13.512 13.9022 13.707 13.7072C14.098 13.3162 14.098 12.6842 13.707 12.2933L8.41399 7.0002Z" fill="white"/>
</svg>
