<svg width="25" height="24" viewBox="0 0 25 24" fill="none" xmlns="http://www.w3.org/2000/svg">
<g clip-path="url(#clip0_31_1409)">
<path d="M24.0974 1.42254L22.8973 0.222633C22.6633 -0.0115546 22.2835 -0.0117421 22.0493 0.222258C22.0491 0.222383 22.049 0.222508 22.049 0.222633L14.8489 7.42254C14.7364 7.53507 14.6732 7.68765 14.6731 7.84676V9.04685C14.6731 9.37807 14.9417 9.64671 15.2731 9.64671H16.4732C16.6323 9.64671 16.7849 9.58352 16.8973 9.47112L24.0974 2.27102C24.3315 2.03684 24.3317 1.65724 24.0977 1.42287C24.0976 1.42285 24.0976 1.42282 24.0975 1.42276C24.0974 1.4227 24.0974 1.42262 24.0974 1.42254Z" fill="white"/>
<path d="M16.4728 10.8472H15.2727C14.279 10.8461 13.4737 10.0408 13.4726 9.04727V7.84717C13.4721 7.61073 13.5184 7.37653 13.6089 7.15811C13.6994 6.93968 13.8323 6.74136 14 6.57461L18.1273 2.44727H3.27271C1.61652 2.44905 0.27458 3.79103 0.272705 5.44727V16.2472C0.27458 17.9034 1.61652 19.2455 3.27271 19.2472H8.67271V22.2472C8.67271 22.5786 8.9413 22.8472 9.27271 22.8472C9.40255 22.8472 9.52888 22.8051 9.63271 22.7271L14.2733 19.2472H20.0726C21.7288 19.2453 23.071 17.9032 23.0726 16.2472V4.99258L17.7454 10.3198C17.5786 10.4875 17.3803 10.6204 17.1619 10.7109C16.9434 10.8014 16.7092 10.8477 16.4728 10.8472ZM4.4728 6.04727H10.4728C10.804 6.04727 11.0726 6.31586 11.0726 6.64727C11.0726 6.97853 10.804 7.24717 10.4728 7.24717H4.4728C4.14139 7.24717 3.87275 6.97872 3.87275 6.64731C3.87275 6.31591 4.1413 6.04727 4.47271 6.04727H4.4728ZM4.4728 9.64713H10.4728C10.804 9.64713 11.0726 9.91572 11.0726 10.2471C11.0726 10.5785 10.804 10.8472 10.4728 10.8472H4.4728C4.14139 10.8472 3.87275 10.5786 3.87275 10.2472C3.87275 9.91591 4.14139 9.64713 4.4728 9.64713ZM19.4726 13.8472C19.4726 14.1786 19.204 14.4472 18.8728 14.4472H4.47271C4.1413 14.4472 3.87271 14.1786 3.87271 13.8472C3.87271 13.516 4.1413 13.2472 4.47271 13.2472H18.8727C19.2039 13.2472 19.4726 13.5158 19.4726 13.8472H19.4726Z" fill="white"/>
</g>
<defs>
<clipPath id="clip0_31_1409">
<rect width="24" height="24" fill="white" transform="translate(0.272705)"/>
</clipPath>
</defs>
</svg>
