<svg width="20" height="20" viewBox="0 0 20 20" fill="none" xmlns="http://www.w3.org/2000/svg">
<path d="M3.26434 6.71621L11.5977 5.04954C11.7598 5.01716 11.9248 5.0007 12.0902 5.00037C12.7532 5.00037 13.3891 5.26377 13.8579 5.73261C14.3268 6.20145 14.5902 6.83733 14.5902 7.50037V13.9704C16.9535 11.5354 19.5902 8.19621 19.5902 5.41704C19.5893 4.35566 19.2766 3.31793 18.691 2.43276C18.1053 1.54758 17.2725 0.853958 16.296 0.438059C15.3195 0.0221595 14.2424 -0.0976921 13.1983 0.0933919C12.1543 0.284476 11.1894 0.778075 10.4235 1.51287C9.65761 0.778075 8.69272 0.284476 7.64869 0.0933919C6.60465 -0.0976921 5.52748 0.0221595 4.55099 0.438059C3.57449 0.853958 2.74169 1.54758 2.15605 2.43276C1.5704 3.31793 1.25772 4.35566 1.25684 5.41704C1.27716 6.19915 1.44481 6.97041 1.751 7.69037C2.11618 7.18815 2.65598 6.84066 3.26434 6.71621Z" fill="#5A5A5A"/>
<path d="M12.9239 15.8338V7.5005C12.9239 7.37691 12.8964 7.25486 12.8435 7.1432C12.7905 7.03154 12.7134 6.93305 12.6177 6.85488C12.5219 6.77671 12.41 6.72081 12.29 6.69122C12.17 6.66164 12.045 6.65911 11.9239 6.68383L3.59055 8.3505C3.40232 8.38892 3.23315 8.49119 3.11166 8.64001C2.99018 8.78883 2.92384 8.97505 2.92388 9.16716V15.8755C2.78669 15.848 2.64713 15.834 2.50721 15.8338C2.06139 15.8179 1.62157 15.9404 1.24808 16.1843C0.874595 16.4283 0.585731 16.7818 0.421114 17.1964C0.256497 17.6111 0.22419 18.0665 0.328624 18.5002C0.433057 18.9339 0.669117 19.3247 1.00442 19.6189C1.33973 19.9131 1.75786 20.0964 2.20146 20.1437C2.64506 20.1909 3.0924 20.0997 3.48212 19.8826C3.87185 19.6655 4.18487 19.3332 4.37824 18.9312C4.57162 18.5291 4.63588 18.0771 4.56221 17.6372C4.57581 17.5926 4.58529 17.5468 4.59055 17.5005V13.1838L11.2572 11.8505V14.2088C11.12 14.1813 10.9805 14.1673 10.8405 14.1672C10.3953 14.1518 9.95627 14.2745 9.58353 14.5184C9.21079 14.7624 8.92264 15.1157 8.75857 15.5298C8.5945 15.944 8.56255 16.3988 8.66711 16.8318C8.77166 17.2648 9.00759 17.6549 9.34256 17.9486C9.67753 18.2423 10.0951 18.4251 10.5381 18.4722C10.9811 18.5192 11.4278 18.428 11.8169 18.2112C12.2061 17.9943 12.5186 17.6624 12.7117 17.261C12.9048 16.8595 12.969 16.4082 12.8955 15.9688C12.9087 15.9247 12.9182 15.8795 12.9239 15.8338ZM4.59055 11.4838V9.84966L11.2572 8.51633V10.1497L4.59055 11.4838Z" fill="#5A5A5A"/>
</svg>
