<svg width="18" height="18" viewBox="0 0 18 18" fill="none" xmlns="http://www.w3.org/2000/svg">
<path d="M5.25761 1.5H1.92428C1.46404 1.5 1.09094 1.8731 1.09094 2.33333V5.66667C1.09094 6.1269 1.46404 6.5 1.92428 6.5H5.25761C5.71785 6.5 6.09094 6.1269 6.09094 5.66667V2.33333C6.09094 1.8731 5.71785 1.5 5.25761 1.5Z" stroke="#F7F7F7" stroke-width="2" stroke-miterlimit="10" stroke-linecap="square"/>
<path d="M10.2576 2.33331H16.0909" stroke="#F7F7F7" stroke-width="2" stroke-miterlimit="10" stroke-linecap="square"/>
<path d="M10.2576 5.66669H16.0909" stroke="#F7F7F7" stroke-width="2" stroke-miterlimit="10" stroke-linecap="square"/>
<path d="M5.25761 11.5H1.92428C1.46404 11.5 1.09094 11.8731 1.09094 12.3333V15.6667C1.09094 16.1269 1.46404 16.5 1.92428 16.5H5.25761C5.71785 16.5 6.09094 16.1269 6.09094 15.6667V12.3333C6.09094 11.8731 5.71785 11.5 5.25761 11.5Z" stroke="#F7F7F7" stroke-width="2" stroke-miterlimit="10" stroke-linecap="square"/>
<path d="M10.2576 12.3333H16.0909" stroke="#F7F7F7" stroke-width="2" stroke-miterlimit="10" stroke-linecap="square"/>
<path d="M10.2576 15.6667H16.0909" stroke="#F7F7F7" stroke-width="2" stroke-miterlimit="10" stroke-linecap="square"/>
</svg>
