<svg width="16" height="16" viewBox="0 0 16 16" fill="none" xmlns="http://www.w3.org/2000/svg">
<path d="M5.25833 7.40168L3.35 5.49335H14.675C15.1333 5.49335 15.5083 5.11835 15.5083 4.66002C15.5083 4.20168 15.1333 3.82668 14.675 3.82668H3.35L5.25833 1.91835C5.41415 1.76254 5.50168 1.55121 5.50168 1.33085C5.50168 1.1105 5.41415 0.899165 5.25833 0.74335C5.10252 0.587536 4.89119 0.5 4.67083 0.5C4.45048 0.5 4.23915 0.587536 4.08333 0.74335L0.75 4.07668C0.425 4.39335 0.425 4.92668 0.75 5.26002L4.08333 8.59335C4.23915 8.74917 4.45048 8.8367 4.67083 8.8367C4.89119 8.8367 5.10252 8.74917 5.25833 8.59335C5.41415 8.43754 5.50168 8.22621 5.50168 8.00585C5.50168 7.7855 5.41415 7.57417 5.25833 7.41835V7.40168ZM15.2583 10.735L11.925 7.40168C11.8478 7.32453 11.7563 7.26333 11.6555 7.22158C11.5546 7.17982 11.4466 7.15833 11.3375 7.15833C11.2284 7.15833 11.1204 7.17982 11.0195 7.22158C10.9187 7.26333 10.8272 7.32453 10.75 7.40168C10.6728 7.47884 10.6116 7.57043 10.5699 7.67123C10.5281 7.77203 10.5066 7.88008 10.5066 7.98918C10.5066 8.09829 10.5281 8.20633 10.5699 8.30714C10.6116 8.40794 10.6728 8.49953 10.75 8.57668L12.6583 10.485H1.33333C0.875 10.485 0.5 10.86 0.5 11.3184C0.5 11.7767 0.875 12.1517 1.33333 12.1517H12.6583L10.75 14.06C10.6728 14.1372 10.6116 14.2288 10.5699 14.3296C10.5281 14.4304 10.5066 14.5384 10.5066 14.6475C10.5066 14.7566 10.5281 14.8647 10.5699 14.9655C10.6116 15.0663 10.6728 15.1579 10.75 15.235C10.8272 15.3122 10.9187 15.3734 11.0195 15.4151C11.1204 15.4569 11.2284 15.4784 11.3375 15.4784C11.4466 15.4784 11.5546 15.4569 11.6555 15.4151C11.7563 15.3734 11.8478 15.3122 11.925 15.235L15.2583 11.9017C15.5833 11.5767 15.5833 11.0517 15.2583 10.7184V10.735Z" fill="#C4227D"/>
</svg>
