<svg width="20" height="20" viewBox="0 0 20 20" fill="none" xmlns="http://www.w3.org/2000/svg">
<path d="M7.45117 6.00595H7.00742C6.74425 6.00512 6.48351 6.05625 6.24014 6.15639C5.99676 6.25653 5.77555 6.40372 5.58917 6.58952C5.40279 6.77532 5.25491 6.99607 5.15401 7.23913C5.05311 7.48219 5.00117 7.74278 5.00117 8.00595V12.6747C4.99217 12.7675 5.00268 12.8612 5.03203 12.9497C5.06138 13.0383 5.10893 13.1197 5.17161 13.1887C5.2343 13.2578 5.31074 13.313 5.39602 13.3507C5.48129 13.3885 5.57353 13.408 5.6668 13.408C5.76006 13.408 5.8523 13.3885 5.93758 13.3507C6.02286 13.313 6.09929 13.2578 6.16198 13.1887C6.22466 13.1197 6.27221 13.0383 6.30156 12.9497C6.33092 12.8612 6.34143 12.7675 6.33242 12.6747V10.6747H8.12617V12.6747C8.11717 12.7675 8.12768 12.8612 8.15703 12.9497C8.18638 13.0383 8.23393 13.1197 8.29661 13.1887C8.3593 13.2578 8.43574 13.313 8.52102 13.3507C8.60629 13.3885 8.69853 13.408 8.7918 13.408C8.88506 13.408 8.9773 13.3885 9.06258 13.3507C9.14786 13.313 9.22429 13.2578 9.28698 13.1887C9.34966 13.1197 9.39721 13.0383 9.42656 12.9497C9.45592 12.8612 9.46643 12.7675 9.45742 12.6747V8.00595C9.45742 7.74278 9.40549 7.48219 9.30459 7.23913C9.20369 6.99607 9.05581 6.77532 8.86943 6.58952C8.68305 6.40372 8.46183 6.25653 8.21846 6.15639C7.97509 6.05625 7.71434 6.00512 7.45117 6.00595ZM6.33867 9.3747V8.00595C6.33867 7.82858 6.40913 7.65848 6.53454 7.53307C6.65996 7.40765 6.83006 7.3372 7.00742 7.3372H7.45117C7.53952 7.33637 7.62715 7.35306 7.70901 7.3863C7.79087 7.41954 7.86533 7.46866 7.92809 7.53085C7.99086 7.59303 8.04068 7.66703 8.07468 7.74858C8.10867 7.83012 8.12618 7.9176 8.12617 8.00595V9.3747H6.33867ZM13.0074 6.00595H11.2512C11.0738 6.00595 10.9037 6.07641 10.7783 6.20182C10.6529 6.32724 10.5824 6.49733 10.5824 6.6747V12.6809C10.5841 12.8572 10.6553 13.0257 10.7805 13.1498C10.9057 13.2739 11.0749 13.3435 11.2512 13.3434H13.0262C13.5566 13.3434 14.0653 13.1327 14.4404 12.7577C14.8155 12.3826 15.0262 11.8739 15.0262 11.3434V8.00595C15.0262 7.74172 14.9738 7.48011 14.8722 7.23622C14.7705 6.99234 14.6215 6.77103 14.4338 6.58506C14.2461 6.3991 14.0234 6.25217 13.7785 6.15277C13.5337 6.05337 13.2716 6.00347 13.0074 6.00595ZM13.6762 11.3434C13.6762 11.5208 13.6057 11.6909 13.4803 11.8163C13.3549 11.9417 13.1848 12.0122 13.0074 12.0122H11.8762V7.34345H12.9887C13.166 7.34345 13.3361 7.4139 13.4615 7.53932C13.587 7.66473 13.6574 7.83483 13.6574 8.0122L13.6762 11.3434Z" fill="#C4227D"/>
<path d="M5.53138 14.4812C5.40605 14.3564 5.23638 14.2864 5.05951 14.2864C4.88263 14.2864 4.71297 14.3564 4.58763 14.4812L3.43138 15.625C2.0941 14.0707 1.35148 12.0925 1.3356 10.0422C1.31972 7.99193 2.03163 6.00246 3.34468 4.42769C4.65774 2.85293 6.48681 1.79497 8.50656 1.44199C10.5263 1.08901 12.6058 1.46391 14.3751 2.49999C14.5265 2.57369 14.7001 2.58757 14.8613 2.53886C15.0225 2.49015 15.1594 2.38244 15.2446 2.23723C15.3298 2.09202 15.3572 1.92 15.3211 1.75553C15.2851 1.59105 15.1883 1.44623 15.0501 1.34999C12.9485 0.103652 10.4634 -0.33013 8.06383 0.130541C5.66429 0.591212 3.51644 1.91446 2.0258 3.85044C0.535166 5.78642 -0.195095 8.20116 -0.027104 10.6387C0.140887 13.0763 1.19551 15.368 2.93763 17.0812C3.06375 17.2045 3.23313 17.2736 3.40951 17.2736C3.58589 17.2736 3.75526 17.2045 3.88138 17.0812L5.53138 15.425C5.65619 15.2997 5.72625 15.13 5.72625 14.9531C5.72625 14.7762 5.65619 14.6066 5.53138 14.4812ZM17.0751 2.93124C16.9475 2.81081 16.7787 2.74373 16.6033 2.74373C16.4278 2.74373 16.259 2.81081 16.1314 2.93124L14.4751 4.58124C14.4064 4.64158 14.3507 4.71539 14.3116 4.79811C14.2725 4.88082 14.2508 4.97067 14.2478 5.06211C14.2449 5.15355 14.2607 5.24463 14.2943 5.32971C14.3279 5.4148 14.3787 5.49207 14.4434 5.55677C14.508 5.62146 14.5853 5.67219 14.6704 5.70582C14.7555 5.73945 14.8466 5.75526 14.938 5.75228C15.0294 5.74931 15.1193 5.7276 15.202 5.6885C15.2847 5.6494 15.3585 5.59375 15.4189 5.52499L16.5751 4.37499C17.9258 5.92721 18.6793 7.90979 18.7007 9.96725C18.722 12.0247 18.0098 14.0225 16.6917 15.6024C15.3736 17.1824 13.5358 18.2411 11.5078 18.5888C9.47982 18.9366 7.39429 18.5506 5.62513 17.5C5.54948 17.4473 5.46376 17.4108 5.37333 17.3928C5.28291 17.3748 5.18974 17.3757 5.09968 17.3955C5.00962 17.4152 4.92462 17.4533 4.85001 17.5075C4.77539 17.5617 4.71279 17.6307 4.66612 17.7102C4.61945 17.7897 4.58972 17.878 4.57881 17.9695C4.5679 18.0611 4.57603 18.1539 4.6027 18.2422C4.62937 18.3304 4.67401 18.4122 4.73379 18.4824C4.79358 18.5526 4.86724 18.6096 4.95013 18.65C7.0504 19.8954 9.53375 20.3293 11.9319 19.8699C14.33 19.4106 16.4772 18.0896 17.9686 16.1562C19.46 14.2229 20.1924 11.8106 20.0278 9.37444C19.8632 6.93825 18.813 4.64646 17.0751 2.93124Z" fill="#C4227D"/>
</svg>
