<svg width="17" height="16" viewBox="0 0 17 16" fill="none" xmlns="http://www.w3.org/2000/svg">
<path d="M16.1984 0.5L16.1866 0.597656C16.0538 1.61914 15.1163 2.33984 14.0948 2.20703L13.8292 2.17188L13.1554 7.34766C13.1378 7.48828 13.1046 7.62695 13.0597 7.75977C12.7667 8.62305 11.9484 9.19336 11.0519 9.19336C10.962 9.19336 10.8722 9.1875 10.7823 9.17578C10.2198 9.10352 9.7218 8.81641 9.37414 8.36719C9.02844 7.91797 8.87805 7.36133 8.95031 6.80078C9.1007 5.64258 10.1671 4.82227 11.3253 4.97266C11.6398 5.01367 11.9405 5.125 12.2042 5.29492L12.8624 0.226563C12.8683 0.183594 12.8898 0.146484 12.923 0.121094C12.9562 0.0957031 12.9991 0.0839844 13.0421 0.0898438L16.1984 0.5ZM8.14172 0.169922C8.42101 1.76953 7.34875 3.29883 5.74914 3.57812L5.26672 3.66211L6.7257 11.9961C6.76477 12.2168 6.78039 12.4414 6.77453 12.6621C6.755 13.4238 6.4718 14.1641 5.97375 14.748C5.46984 15.3398 4.77062 15.7383 4.005 15.875C3.80773 15.9102 3.61242 15.9258 3.41711 15.9258C2.73547 15.9258 2.06945 15.7168 1.49914 15.3184C0.764765 14.8027 0.276484 14.0352 0.122187 13.1523C-0.194219 11.332 1.02648 9.5918 2.8468 9.27344C3.37219 9.18164 3.91125 9.2168 4.41711 9.37305L2.98156 1.17578C2.96203 1.06836 3.03625 0.964844 3.14367 0.945313L8.12609 0.0722656L8.14172 0.169922Z" fill="#C4227D"/>
</svg>
