<svg width="25" height="24" viewBox="0 0 25 24" fill="none" xmlns="http://www.w3.org/2000/svg">
<path d="M22.3464 6.17758C22.3177 5.54619 22.3177 4.9435 22.3177 4.34081C22.3177 3.85291 21.9446 3.47982 21.4568 3.47982C17.8693 3.47982 15.1429 2.44664 12.8756 0.236771C12.5312 -0.0789238 12.0146 -0.0789238 11.6702 0.236771C9.40294 2.44664 6.67648 3.47982 3.08904 3.47982C2.60115 3.47982 2.22805 3.85291 2.22805 4.34081C2.22805 4.9435 2.22805 5.54619 2.19935 6.17758C2.08456 12.2045 1.91236 20.47 11.9859 23.9426L12.2729 24L12.5599 23.9426C22.6047 20.47 22.4612 12.2332 22.3464 6.17758ZM11.5841 14.5291C11.4119 14.6726 11.211 14.7587 10.9814 14.7587H10.9527C10.7231 14.7587 10.4935 14.6439 10.35 14.4717L7.68097 11.5157L8.97245 10.3677L11.0675 12.6924L15.7168 8.27264L16.8935 9.53543L11.5841 14.5291Z" fill="white"/>
</svg>
