<svg width="25" height="24" viewBox="0 0 25 24" fill="none" xmlns="http://www.w3.org/2000/svg">
<g clip-path="url(#clip0_31_1390)">
<path d="M24.2332 9.21995C24.1873 9.07792 24.1025 8.95157 23.9885 8.85521C23.8746 8.75885 23.7359 8.69632 23.5882 8.6747L16.2652 7.61045L12.9907 0.974453C12.917 0.849582 12.8121 0.746082 12.6862 0.674178C12.5603 0.602273 12.4179 0.564453 12.2729 0.564453C12.128 0.564453 11.9855 0.602273 11.8596 0.674178C11.7337 0.746082 11.6288 0.849582 11.5552 0.974453L8.28067 7.60895L0.957672 8.6747C0.809919 8.69621 0.671131 8.75863 0.556999 8.8549C0.442867 8.95116 0.357943 9.07744 0.311829 9.21945C0.265714 9.36146 0.260249 9.51354 0.296051 9.65849C0.331853 9.80345 0.407494 9.93549 0.514422 10.0397L5.81392 15.2042L4.56367 22.4995C4.53838 22.6465 4.55476 22.7978 4.61096 22.936C4.66716 23.0743 4.76093 23.194 4.88166 23.2817C5.0024 23.3695 5.14527 23.4216 5.29412 23.4324C5.44297 23.4431 5.59186 23.4119 5.72392 23.3425L12.2729 19.8977L18.8227 23.341C18.9546 23.4103 19.1033 23.4414 19.252 23.4307C19.4007 23.42 19.5434 23.368 19.6641 23.2805C19.7848 23.193 19.8786 23.0735 19.9349 22.9354C19.9912 22.7974 20.0079 22.6464 19.9829 22.4995L18.7327 15.2057L24.0322 10.0412C24.1391 9.93678 24.2146 9.80448 24.2501 9.65932C24.2856 9.51416 24.2798 9.36195 24.2332 9.21995Z" fill="white"/>
</g>
<defs>
<clipPath id="clip0_31_1390">
<rect width="24" height="24" fill="white" transform="translate(0.272705)"/>
</clipPath>
</defs>
</svg>
