<svg width="23" height="24" viewBox="0 0 23 24" fill="none" xmlns="http://www.w3.org/2000/svg">
<g clip-path="url(#clip0_31_1430)">
<path d="M22.2356 13.0185C22.2358 14.7949 21.805 16.5448 20.9803 18.1182C20.1556 19.6915 18.9615 21.0413 17.5004 22.0517C16.0394 23.0621 14.355 23.703 12.5919 23.9194C10.8287 24.1358 9.03939 23.9212 7.37738 23.2941C5.71537 22.667 4.2303 21.646 3.04957 20.3188C1.86885 18.9916 1.02772 17.3978 0.598336 15.6741C0.168956 13.9504 0.164145 12.1482 0.584316 10.4223C1.00449 8.69628 1.8371 7.098 3.01072 5.76452C3.032 5.73832 3.05889 5.71723 3.08941 5.70282C3.11993 5.68841 3.1533 5.68104 3.18705 5.68125C3.25347 5.68296 3.31736 5.70713 3.36828 5.74982L4.71035 7.09189C4.75308 7.13626 4.77776 7.19496 4.77957 7.25653C4.78138 7.31811 4.7602 7.37815 4.72014 7.42496C3.45366 8.90822 2.72897 10.7779 2.665 12.7273C2.60103 14.6766 3.20157 16.5898 4.36808 18.1529C5.53459 19.716 7.19778 20.8362 9.08473 21.3296C10.9717 21.823 12.9703 21.6604 14.7527 20.8684C16.535 20.0764 17.9952 18.702 18.8936 16.9709C19.7921 15.2397 20.0754 13.2546 19.6971 11.3413C19.3188 9.42791 18.3013 7.69997 16.8117 6.44099C15.322 5.18202 13.4487 4.46678 11.4991 4.41265V6.08289C11.4988 6.12575 11.4873 6.1678 11.4657 6.20483C11.4441 6.24185 11.4132 6.27256 11.376 6.29388C11.3388 6.3152 11.2967 6.32639 11.2538 6.32632C11.2109 6.32625 11.1688 6.31494 11.1317 6.29351L6.07691 3.37426C6.03974 3.35307 6.00885 3.32243 5.98736 3.28544C5.96587 3.24844 5.95455 3.20643 5.95455 3.16365C5.95455 3.12087 5.96587 3.07885 5.98736 3.04186C6.00885 3.00487 6.03974 2.97422 6.07691 2.95303L11.1317 0.0337874C11.1689 0.0122927 11.2112 0.000976562 11.2542 0.000976562C11.2971 0.000976562 11.3394 0.0122927 11.3766 0.0337874C11.4136 0.0551565 11.4444 0.08584 11.4659 0.122789C11.4874 0.159738 11.4988 0.201665 11.4991 0.244404V2.03709C14.3676 2.10483 17.0961 3.29118 19.1021 5.34289C21.108 7.39461 22.2326 10.1492 22.2356 13.0185Z" fill="white"/>
</g>
<defs>
<clipPath id="clip0_31_1430">
<rect width="21.9629" height="24" fill="white" transform="translate(0.272705)"/>
</clipPath>
</defs>
</svg>
