<svg width="21" height="20" viewBox="0 0 21 20" fill="none" xmlns="http://www.w3.org/2000/svg">
<mask id="mask0_31_615" style="mask-type:luminance" maskUnits="userSpaceOnUse" x="0" y="0" width="21" height="20">
<path d="M0.636353 0H20.6364V20H0.636353V0Z" fill="white"/>
</mask>
<g mask="url(#mask0_31_615)">
<path d="M10.6349 6.92713C8.93781 6.92713 7.56199 8.30291 7.56199 10.0001C7.56199 11.6972 8.93781 13.073 10.6349 13.073C12.332 13.073 13.7078 11.6972 13.7078 10.0001C13.7078 8.30291 12.332 6.92713 10.6349 6.92713ZM19.26 7.80721L18.428 8.49213C17.4789 9.27342 17.4789 10.7267 18.428 11.508L19.26 12.1929C19.5548 12.4356 19.631 12.8559 19.44 13.1867L17.7972 16.0322C17.6062 16.3629 17.2041 16.5071 16.8465 16.3731L15.8373 15.9951C14.6862 15.5639 13.4277 16.2905 13.2255 17.503L13.0484 18.566C12.9856 18.9427 12.6597 19.2188 12.2778 19.2188H8.99203C8.61015 19.2188 8.28422 18.9427 8.22144 18.566L8.04426 17.503C7.84218 16.2905 6.58363 15.5639 5.4325 15.9951L4.42336 16.3731C4.0657 16.5071 3.66363 16.3629 3.47265 16.0322L1.8298 13.1867C1.63886 12.8559 1.715 12.4356 2.00984 12.1929L2.84187 11.508C3.7909 10.7267 3.7909 9.27342 2.84187 8.49213L2.00984 7.80721C1.715 7.56448 1.63886 7.14416 1.8298 6.81342L3.47265 3.96791C3.66363 3.63717 4.0657 3.49295 4.42336 3.62694L5.4325 4.00498C6.58363 4.43623 7.84218 3.70963 8.04426 2.49709L8.22144 1.43408C8.28422 1.0574 8.61015 0.781311 8.99203 0.781311H12.2778C12.6597 0.781311 12.9856 1.0574 13.0484 1.43408L13.2255 2.49709C13.4277 3.70963 14.6862 4.43623 15.8373 4.00498L16.8465 3.62694C17.2041 3.49295 17.6062 3.63717 17.7972 3.96791L19.44 6.81342C19.631 7.14416 19.5548 7.56448 19.26 7.80721Z" stroke="white" stroke-width="1.5625" stroke-miterlimit="10" stroke-linecap="round" stroke-linejoin="round"/>
</g>
</svg>
