<svg width="25" height="24" viewBox="0 0 25 24" fill="none" xmlns="http://www.w3.org/2000/svg">
<path d="M22.2733 1H14.2733C14.0755 1.00004 13.8822 1.05871 13.7178 1.1686C13.5534 1.27848 13.4253 1.43465 13.3496 1.61735C13.2739 1.80005 13.2541 2.00108 13.2927 2.19503C13.3313 2.38898 13.4265 2.56715 13.5663 2.707L16.8593 6L10.5663 12.293C10.4708 12.3852 10.3946 12.4956 10.3422 12.6176C10.2898 12.7396 10.2622 12.8708 10.261 13.0036C10.2599 13.1364 10.2852 13.2681 10.3355 13.391C10.3857 13.5139 10.46 13.6255 10.5539 13.7194C10.6478 13.8133 10.7594 13.8875 10.8823 13.9378C11.0052 13.9881 11.1369 14.0134 11.2697 14.0123C11.4025 14.0111 11.5337 13.9835 11.6557 13.9311C11.7777 13.8787 11.888 13.8025 11.9803 13.707L18.2733 7.414L21.5663 10.707C21.7538 10.8945 22.0081 10.9999 22.2733 11C22.4047 11.0004 22.5349 10.9746 22.6563 10.924C22.839 10.8483 22.9951 10.72 23.1049 10.5556C23.2147 10.3911 23.2733 10.1978 23.2733 10V2C23.2733 1.73478 23.1679 1.48043 22.9804 1.29289C22.7928 1.10536 22.5385 1 22.2733 1Z" fill="white"/>
<path d="M4.27271 23H18.2727C19.0684 23 19.8314 22.6839 20.394 22.1213C20.9566 21.5587 21.2727 20.7956 21.2727 20V15C21.2727 14.7348 21.1673 14.4804 20.9798 14.2929C20.7923 14.1054 20.5379 14 20.2727 14C20.0075 14 19.7531 14.1054 19.5656 14.2929C19.3781 14.4804 19.2727 14.7348 19.2727 15V20C19.2727 20.2652 19.1673 20.5196 18.9798 20.7071C18.7923 20.8946 18.5379 21 18.2727 21H4.27271C4.00749 21 3.75313 20.8946 3.5656 20.7071C3.37806 20.5196 3.27271 20.2652 3.27271 20V6C3.27271 5.73478 3.37806 5.48043 3.5656 5.29289C3.75313 5.10536 4.00749 5 4.27271 5H9.27271C9.53792 5 9.79228 4.89464 9.97981 4.70711C10.1673 4.51957 10.2727 4.26522 10.2727 4C10.2727 3.73478 10.1673 3.48043 9.97981 3.29289C9.79228 3.10536 9.53792 3 9.27271 3H4.27271C3.47706 3 2.71399 3.31607 2.15138 3.87868C1.58878 4.44129 1.27271 5.20435 1.27271 6V20C1.27271 20.7956 1.58878 21.5587 2.15138 22.1213C2.71399 22.6839 3.47706 23 4.27271 23Z" fill="white"/>
</svg>
