<svg width="45" height="44" viewBox="0 0 45 44" fill="none" xmlns="http://www.w3.org/2000/svg">
<path d="M22.6364 0C10.4861 0 0.636353 9.84972 0.636353 22C0.636353 34.1503 10.4861 44 22.6364 44C34.7866 44 44.6364 34.1503 44.6364 22C44.6364 9.84972 34.7866 0 22.6364 0ZM32.2111 31.928C31.9313 32.4066 31.4279 32.6735 30.9108 32.6736C30.6444 32.6736 30.3829 32.6026 30.1531 32.4679C26.1997 30.1574 21.6325 29.7861 18.4965 29.8815C15.0227 29.9871 12.4752 30.6729 12.4499 30.6799C11.6491 30.8986 10.8216 30.4274 10.6019 29.6267C10.3824 28.8262 10.8519 27.9992 11.6523 27.7787C11.7671 27.7471 14.5085 27.0025 18.3205 26.8768C20.5659 26.8027 22.7276 26.9592 24.7446 27.3418C27.2993 27.8264 29.6297 28.6771 31.6712 29.8702C32.3886 30.2893 32.6302 31.2108 32.2111 31.928ZM35.0079 26.1191C34.6766 26.6861 34.0803 27.0022 33.4677 27.0023C33.1623 27.0023 32.853 26.9238 32.5702 26.7585C27.8874 24.0217 22.4773 23.5821 18.7627 23.695C14.6479 23.8202 11.6303 24.6325 11.6003 24.6407C10.652 24.8995 9.67161 24.3417 9.41141 23.3933C9.15121 22.4449 9.70763 21.4654 10.6556 21.2042C10.7916 21.1667 14.0388 20.2847 18.5543 20.1358C21.2142 20.0481 23.7747 20.2334 26.1638 20.6866C29.19 21.2608 31.9503 22.2683 34.3685 23.6815C35.2183 24.178 35.5046 25.2695 35.0079 26.1191ZM36.7273 20.8374C36.3527 20.8374 35.9732 20.7411 35.6264 20.5384C24.4933 14.032 10.0515 17.9 9.90692 17.94C8.74295 18.2607 7.53968 17.5771 7.21909 16.4132C6.89839 15.2494 7.58197 14.046 8.74583 13.7254C8.91261 13.6794 12.8956 12.5975 18.4343 12.4149C21.6972 12.3075 24.8377 12.5347 27.7683 13.0906C31.4801 13.7947 34.8662 15.0306 37.8322 16.7641C38.8745 17.3732 39.2256 18.7118 38.6165 19.7541C38.2101 20.4496 37.4787 20.8374 36.7273 20.8374Z" fill="black"/>
</svg>
