<svg width="65" height="64" viewBox="0 0 65 64" fill="none" xmlns="http://www.w3.org/2000/svg">
<path d="M32.3636 0C14.6905 0 0.363647 14.3269 0.363647 32C0.363647 49.6731 14.6905 64 32.3636 64C50.0368 64 64.3636 49.6731 64.3636 32C64.3636 14.3269 50.0368 0 32.3636 0ZM46.2905 46.4408C45.8836 47.1369 45.1513 47.5251 44.3992 47.5253C44.0117 47.5253 43.6313 47.422 43.2971 47.226C37.5466 43.8653 30.9035 43.3252 26.342 43.464C21.2892 43.6177 17.5838 44.6151 17.547 44.6253C16.3822 44.9435 15.1785 44.258 14.859 43.0934C14.5397 41.929 15.2227 40.726 16.3868 40.4053C16.5539 40.3594 20.5412 39.2763 26.0861 39.0935C29.3522 38.9857 32.4964 39.2133 35.4302 39.7699C39.1461 40.4748 42.5358 41.7121 45.5052 43.4475C46.5488 44.0572 46.9002 45.3975 46.2905 46.4408ZM50.3587 37.9914C49.8768 38.8162 49.0094 39.2759 48.1184 39.276C47.6742 39.276 47.2242 39.1619 46.8129 38.9215C40.0016 34.9407 32.1323 34.3012 26.7293 34.4654C20.744 34.6475 16.3548 35.8291 16.3113 35.841C14.9319 36.2174 13.5058 35.4061 13.1274 34.0266C12.7489 32.6471 13.5582 31.2224 14.9371 30.8424C15.135 30.7879 19.8581 29.505 26.4261 29.2884C30.2951 29.1609 34.0194 29.4304 37.4945 30.0897C41.8962 30.9247 45.9113 32.3903 49.4286 34.4458C50.6647 35.168 51.0811 36.7556 50.3587 37.9914ZM52.8596 30.3089C52.3147 30.3089 51.7627 30.1688 51.2583 29.874C35.0646 20.4102 14.0584 26.0364 13.8481 26.0945C12.1551 26.561 10.4049 25.5667 9.93853 23.8738C9.47206 22.1809 10.4664 20.4305 12.1593 19.9642C12.4018 19.8973 18.1953 18.3237 26.2516 18.058C30.9976 17.9018 35.5657 18.2322 39.8283 19.0408C45.2273 20.0651 50.1525 21.8627 54.4667 24.3841C55.9827 25.27 56.4935 27.2172 55.6075 28.7332C55.0164 29.7449 53.9525 30.3089 52.8596 30.3089Z" fill="#00D95F"/>
</svg>
