<svg width="25" height="24" viewBox="0 0 25 24" fill="none" xmlns="http://www.w3.org/2000/svg">
<g clip-path="url(#clip0_31_1440)">
<path d="M21.6916 19.0825L19.0678 21.642L17.8539 20.4596C17.769 20.3739 17.6675 20.3055 17.5553 20.2585C17.4431 20.2115 17.3225 20.1868 17.2003 20.1857C17.0782 20.1847 16.9571 20.2074 16.8441 20.2525C16.7311 20.2976 16.6284 20.3642 16.5421 20.4485C16.4557 20.5327 16.3874 20.6329 16.3412 20.7431C16.2949 20.8534 16.2717 20.9715 16.2727 21.0906C16.2738 21.2097 16.2992 21.3275 16.3474 21.4369C16.3956 21.5464 16.4656 21.6454 16.5535 21.7281L18.4176 23.5448C18.5028 23.6284 18.6041 23.6947 18.7157 23.74C18.8273 23.7853 18.9469 23.8086 19.0678 23.8086C19.1886 23.8086 19.3083 23.7853 19.4199 23.74C19.5315 23.6947 19.6328 23.6284 19.718 23.5448L22.9919 20.351C23.0798 20.2683 23.1498 20.1693 23.198 20.0598C23.2462 19.9504 23.2716 19.8326 23.2727 19.7135C23.2737 19.5944 23.2505 19.4763 23.2042 19.366C23.158 19.2558 23.0897 19.1556 23.0033 19.0714C22.917 18.9871 22.8143 18.9205 22.7013 18.8754C22.5883 18.8303 22.4672 18.8076 22.3451 18.8086C22.223 18.8097 22.1023 18.8344 21.9901 18.8814C21.8779 18.9284 21.7764 18.9968 21.6916 19.0825Z" fill="white"/>
<path d="M17.8977 -0.191406H5.64771C3.23271 -0.191406 1.27271 1.72859 1.27271 4.09431V19.5229C1.27271 21.8886 3.23271 23.8086 5.64771 23.8086H15.9815L15.0015 22.8486C14.5093 22.365 14.233 21.71 14.233 21.0272C14.233 20.3443 14.5093 19.6893 15.0015 19.2057C15.4784 18.7374 16.1217 18.4678 16.7969 18.4534C17.472 18.4391 18.1267 18.681 18.624 19.1286L19.8927 17.8943C20.5402 17.26 21.4415 17.0286 22.2727 17.2V4.09431C22.2727 1.72859 20.3127 -0.191406 17.8977 -0.191406ZM17.0227 16.9515H6.52271C6.04146 16.9515 5.64771 16.5657 5.64771 16.0943C5.64771 15.6229 6.04146 15.2372 6.52271 15.2372H17.0227C17.504 15.2372 17.8977 15.6229 17.8977 16.0943C17.8977 16.5657 17.504 16.9515 17.0227 16.9515ZM17.0227 12.6657H6.52271C6.04146 12.6657 5.64771 12.28 5.64771 11.8086C5.64771 11.3372 6.04146 10.9515 6.52271 10.9515H17.0227C17.504 10.9515 17.8977 11.3372 17.8977 11.8086C17.8977 12.28 17.504 12.6657 17.0227 12.6657ZM17.0227 8.38002H6.52271C6.04146 8.38002 5.64771 7.99431 5.64771 7.52288C5.64771 7.05145 6.04146 6.66574 6.52271 6.66574H17.0227C17.504 6.66574 17.8977 7.05145 17.8977 7.52288C17.8977 7.99431 17.504 8.38002 17.0227 8.38002Z" fill="white"/>
</g>
<defs>
<clipPath id="clip0_31_1440">
<rect width="24" height="24" fill="white" transform="translate(0.272705)"/>
</clipPath>
</defs>
</svg>
