<svg width="18" height="18" viewBox="0 0 18 18" fill="none" xmlns="http://www.w3.org/2000/svg">
<path d="M4.9604 0.669157C4.74349 0.673894 4.53732 0.764516 4.38717 0.921126L1.05804 4.24396C0.980044 4.32127 0.918137 4.41325 0.875889 4.51461C0.833641 4.61597 0.81189 4.7247 0.81189 4.83451C0.81189 4.94432 0.833641 5.05305 0.875889 5.15441C0.918137 5.25577 0.980044 5.34776 1.05804 5.42506L4.38717 8.7542C4.54338 8.90999 4.75507 8.99734 4.97568 8.99705C5.08492 8.9969 5.19306 8.97524 5.29393 8.9333C5.39479 8.89136 5.48641 8.82997 5.56355 8.75262C5.64069 8.67528 5.70184 8.5835 5.7435 8.48252C5.78517 8.38154 5.80654 8.27334 5.8064 8.16411C5.80625 8.05487 5.78459 7.94673 5.74265 7.84587C5.70071 7.745 5.63932 7.65338 5.56197 7.57624L3.65646 5.67073H16.6234C16.8443 5.67073 17.0562 5.58296 17.2125 5.42673C17.3687 5.2705 17.4565 5.05861 17.4565 4.83766C17.4565 4.61672 17.3687 4.40482 17.2125 4.24859C17.0562 4.09236 16.8443 4.00459 16.6234 4.00459H3.64701L5.56197 2.09593C5.68172 1.97925 5.76351 1.82919 5.79668 1.66532C5.82984 1.50145 5.81284 1.33139 5.74788 1.17733C5.68293 1.02328 5.57304 0.89238 5.43256 0.801726C5.29208 0.711072 5.12753 0.664873 4.9604 0.669157ZM13.2943 8.99042C13.1279 8.98994 12.9653 9.03936 12.8274 9.13227C12.6894 9.22519 12.5825 9.35734 12.5204 9.51164C12.4584 9.66594 12.444 9.83531 12.4792 9.99786C12.5144 10.1604 12.5975 10.3087 12.7179 10.4235L14.6202 12.3259H1.65646C1.43552 12.3259 1.22362 12.4136 1.06739 12.5699C0.911159 12.7261 0.82339 12.938 0.82339 13.1589C0.82339 13.3799 0.911159 13.5918 1.06739 13.748C1.22362 13.9042 1.43552 13.992 1.65646 13.992H14.6328L12.721 15.9038C12.6385 15.9799 12.5722 16.0718 12.5262 16.1742C12.4802 16.2766 12.4554 16.3872 12.4532 16.4994C12.4511 16.6116 12.4717 16.7231 12.5138 16.8271C12.5559 16.9311 12.6186 17.0256 12.6982 17.1047C12.7778 17.1839 12.8725 17.2461 12.9768 17.2876C13.0811 17.3292 13.1926 17.3492 13.3048 17.3464C13.417 17.3437 13.5275 17.3183 13.6296 17.2717C13.7317 17.2251 13.8234 17.1584 13.899 17.0755L17.2281 13.7526C17.3061 13.6753 17.368 13.5833 17.4103 13.482C17.4525 13.3806 17.4743 13.2719 17.4743 13.1621C17.4743 13.0523 17.4525 12.9435 17.4103 12.8422C17.368 12.7408 17.3061 12.6488 17.2281 12.5715L13.8958 9.24239C13.8182 9.16142 13.7247 9.09727 13.6212 9.05393C13.5177 9.01058 13.4064 8.98897 13.2943 8.99042Z" fill="white" fill-opacity="0.6"/>
</svg>
