<svg width="16" height="18" viewBox="0 0 16 18" fill="none" xmlns="http://www.w3.org/2000/svg">
<path fill-rule="evenodd" clip-rule="evenodd" d="M8.49845 0.46967C8.3578 0.32902 8.16703 0.25 7.96812 0.25C7.76921 0.25 7.57843 0.32902 7.43779 0.46967L4.23779 3.66967C3.9449 3.96256 3.9449 4.43744 4.23779 4.73033C4.53068 5.02322 5.00556 5.02322 5.29845 4.73033L7.21812 2.81066V11.4C7.21812 11.8142 7.55391 12.15 7.96812 12.15C8.38233 12.15 8.71812 11.8142 8.71812 11.4V2.81066L10.6378 4.73033C10.9307 5.02322 11.4056 5.02322 11.6984 4.73033C11.9913 4.43744 11.9913 3.96256 11.6984 3.66967L8.49845 0.46967ZM7.96812 2.06066L8.71812 2.81066V1H7.96812H7.21812V2.81066L7.96812 2.06066ZM7.96812 2.06066L8.49845 1.53033L7.96812 1L7.43779 1.53033L7.96812 2.06066ZM2.31812 9C2.31812 8.58579 1.98233 8.25 1.56812 8.25C1.15391 8.25 0.818115 8.58579 0.818115 9V14C0.818115 16.0711 2.49705 17.75 4.56812 17.75H11.3681C13.4392 17.75 15.1181 16.0711 15.1181 14V9C15.1181 8.58579 14.7823 8.25 14.3681 8.25C13.9539 8.25 13.6181 8.58579 13.6181 9V14C13.6181 15.2426 12.6107 16.25 11.3681 16.25H4.56812C3.32548 16.25 2.31812 15.2426 2.31812 14V9Z" fill="white"/>
</svg>
