<svg width="64" height="53" viewBox="0 0 64 53" fill="none" xmlns="http://www.w3.org/2000/svg">
<g filter="url(#filter0_d_31_603)">
<path d="M47.7887 48.2674L60.9246 39.4772C61.5363 39.0695 61.9032 38.3879 61.9091 37.6481L61.9091 37.6422C61.9093 37.278 61.8195 36.9194 61.6478 36.5983C61.4761 36.2772 61.2276 36.0034 60.9246 35.8014L47.7887 27.017C47.113 26.5625 46.2391 26.516 45.5227 26.9004C45.1688 27.0889 44.873 27.3701 44.6667 27.7138C44.4604 28.0576 44.3516 28.451 44.3518 28.8519L44.3518 32.4227L42.6159 32.4227C36.9304 32.4227 31.6994 29.2362 29.0256 24.3198C31.6994 19.4033 36.9304 16.2169 42.6159 16.2169L44.3518 16.2169L44.3518 19.7877C44.3516 20.1885 44.4604 20.5819 44.6667 20.9257C44.873 21.2695 45.1688 21.5506 45.5227 21.7391C46.2391 22.1236 47.113 22.077 47.7887 21.6226L60.9304 12.8384C61.2317 12.6351 61.4785 12.3609 61.6491 12.04C61.8198 11.719 61.909 11.3611 61.909 10.9976L61.909 10.9917C61.9031 10.2518 61.5362 9.5703 60.9245 9.16255L47.7887 0.372363C47.4566 0.149935 47.0703 0.022117 46.6711 0.00262034C46.2718 -0.0168763 45.8749 0.072685 45.5227 0.261695C45.1691 0.448976 44.8733 0.729064 44.667 1.07186C44.4607 1.41465 44.3517 1.80718 44.3518 2.20727L44.3518 5.88884L42.6159 5.88884C35.1537 5.88884 28.1635 9.18596 23.346 14.5859C18.4412 9.23253 12.0217 7.18205 7.9266 6.39561C4.79849 5.79558 1.90912 8.18395 1.90912 11.3588C1.90912 13.8461 3.75567 15.9956 6.20813 16.3509C9.96545 16.8985 14.8294 18.7684 17.6839 24.3199C14.8296 29.8714 9.96545 31.7412 6.20813 32.2888C3.75567 32.6441 1.90912 34.7936 1.90912 37.281C1.90912 40.4558 4.79849 42.8441 7.9266 42.2442C12.0159 41.4577 18.4295 39.3956 23.3343 34.0539C28.1519 39.4538 35.148 42.7509 42.6159 42.7509L44.3518 42.7509L44.3518 46.4325C44.3517 46.8326 44.4607 47.2251 44.667 47.5679C44.8733 47.9107 45.1691 48.1908 45.5227 48.3781C46.2391 48.7626 47.1071 48.7218 47.7887 48.2674ZM46.344 46.8345C46.2693 46.7976 46.2067 46.7402 46.1634 46.669C46.1201 46.5978 46.0979 46.5158 46.0994 46.4325L46.0994 41.8771C46.0996 41.7623 46.0771 41.6486 46.0332 41.5425C45.9894 41.4364 45.925 41.34 45.8438 41.2589C45.7627 41.1777 45.6663 41.1133 45.5602 41.0695C45.4541 41.0256 45.3404 41.0031 45.2256 41.0033L42.6159 41.0033C32.7014 41.0033 23.6663 34.7761 20.1362 25.5081C17.0198 17.3178 10.2334 15.174 6.45852 14.6207C4.86235 14.3877 3.65652 12.9838 3.65652 11.3586C3.65652 9.27322 5.55553 7.72363 7.60025 8.11397C12.9244 9.13339 22.472 12.4363 26.5206 23.0732C29.0487 29.7141 35.5148 34.1703 42.6158 34.1703L45.2255 34.1703C45.3403 34.1705 45.454 34.148 45.5601 34.1041C45.6662 34.0603 45.7625 33.9959 45.8437 33.9147C45.9249 33.8335 45.9892 33.7372 46.0331 33.6311C46.077 33.525 46.0995 33.4113 46.0993 33.2965L46.0993 28.8519C46.0993 28.6014 46.2682 28.4849 46.3439 28.4441C46.4197 28.4033 46.612 28.3276 46.8158 28.4674L59.9518 37.252C60.0159 37.295 60.0685 37.3531 60.105 37.4211C60.1415 37.4891 60.1609 37.565 60.1615 37.6422C60.1615 37.7355 60.1323 37.9043 59.9575 38.0266L46.8158 46.8111C46.612 46.9509 46.4198 46.8752 46.344 46.8345Z" fill="white"/>
</g>
<defs>
<filter id="filter0_d_31_603" x="0.220449" y="0" width="63.3773" height="52.0173" filterUnits="userSpaceOnUse" color-interpolation-filters="sRGB">
<feFlood flood-opacity="0" result="BackgroundImageFix"/>
<feColorMatrix in="SourceAlpha" type="matrix" values="0 0 0 0 0 0 0 0 0 0 0 0 0 0 0 0 0 0 127 0" result="hardAlpha"/>
<feOffset dy="1.68867"/>
<feGaussianBlur stdDeviation="0.844335"/>
<feComposite in2="hardAlpha" operator="out"/>
<feColorMatrix type="matrix" values="0 0 0 0 0 0 0 0 0 0 0 0 0 0 0 0 0 0 0.25 0"/>
<feBlend mode="normal" in2="BackgroundImageFix" result="effect1_dropShadow_31_603"/>
<feBlend mode="normal" in="SourceGraphic" in2="effect1_dropShadow_31_603" result="shape"/>
</filter>
</defs>
</svg>
